#!OML:ASF H:\Terrain\Patient Classification 1\Takeo\Monday\TakeoMonday.ASF
:FULLY-SPECIFIED
:DEGREES
696
root 8.87195 17.0826 0.427592 7.36113 18.9277 -6.38315
lowerback 16.696 6.68789 -2.53663
upperback 8.87938 8.4113 -6.19021
thorax 0.871653 4.35192 -6.43676
lowerneck -13.1302 -9.23533 -8.85674
upperneck -12.9671 -10.257 15.8573
head -0.344505 -4.81887 5.8293
rclavicle 1.43125e-014 -6.36111e-015
rhumerus 76.0181 -5.04616 -44.9059
rradius 25.784
rwrist 0.0992722
rhand -28.3748 22.4439
rfingers 7.12502
rthumb -1.74789 -7.52867
lclavicle 1.43125e-014 -6.36111e-015
lhumerus -31.5491 -7.38015 91.7092
lradius 112.582
lwrist 19.6536
lhand -25.3142 3.6151
lfingers 7.12502
lthumb 1.20812 33.5914
rfemur -9.88396 -33.9138 37.157
rtibia 28.1909
rfoot -29.9374 -29.3562
rtoes -5.76297
lfemur -40.8898 -6.78562 -11.3592
ltibia 46.9402
lfoot -11.3674 -5.98764
ltoes -5.15227
697
root 8.87372 17.0941 0.439335 7.60344 18.8537 -5.93675
lowerback 16.6613 6.71717 -2.95761
upperback 8.81315 8.38609 -6.4713
thorax 0.805744 4.33206 -6.50523
lowerneck -12.8071 -9.17554 -8.78454
upperneck -13.1103 -10.1934 15.8854
head -0.443664 -4.80722 5.84744
rclavicle -3.49861e-014 -1.59028e-014
rhumerus 75.1382 -4.89165 -43.9885
rradius 26.8975
rwrist -1.37236
rhand -28.4371 22.386
rfingers 7.12502
rthumb -1.80807 -7.58606
lclavicle -3.49861e-014 -1.59028e-014
lhumerus -31.8927 -7.34088 91.5392
lradius 112.602
lwrist 19.6576
lhand -25.4054 4.18343
lfingers 7.12502
lthumb 1.11999 34.1602
rfemur -10.0097 -33.7027 36.7274
rtibia 28.3291
rfoot -30.1113 -29.2637
rtoes -5.3124
lfemur -40.8844 -6.90789 -11.7815
ltibia 46.8388
lfoot -11.2931 -5.89382
ltoes -5.21294
698
root 8.87535 17.0917 0.449461 7.65186 18.745 -5.62496
lowerback 16.6933 6.76977 -3.28578
upperback 8.81249 8.40473 -6.66309
thorax 0.778901 4.33612 -6.53965
lowerneck -12.731 -9.16513 -9.06265
upperneck -12.9125 -10.1625 16.1985
head -0.36034 -4.78284 5.98562
rclavicle 3.02153e-014 -8.74653e-014
rhumerus 74.3559 -4.7622 -43.7785
rradius 27.7985
rwrist -2.02037
rhand -28.5996 22.4687
rfingers 7.12502
rthumb -1.96497 -7.50199
lclavicle 3.02153e-014 -8.74653e-014
lhumerus -32.1116 -7.31762 91.4923
lradius 112.507
lwrist 19.5452
lhand -25.1986 4.10742
lfingers 7.12502
lthumb 1.31977 34.0831
rfemur -9.99291 -33.4084 36.337
rtibia 28.5727
rfoot -30.2217 -29.2378
rtoes -4.22751
lfemur -40.6308 -6.92136 -12.1272
ltibia 46.7557
lfoot -11.3828 -5.776
ltoes -5.58732
699
root 8.87885 17.0801 0.456377 7.48303 18.6517 -5.91396
lowerback 16.653 6.74197 -3.12599
upperback 8.89365 8.4016 -6.62309
thorax 0.902749 4.34125 -6.57187
lowerneck -12.8525 -9.1622 -9.25509
upperneck -12.6603 -10.153 16.2963
head -0.251037 -4.76187 6.03452
rclavicle 6.67916e-014 -6.36111e-014
rhumerus 73.8921 -4.61551 -44.1525
rradius 28.5696
rwrist -2.02874
rhand -28.6537 22.999
rfingers 7.12502
rthumb -2.01721 -6.97117
lclavicle 6.67916e-014 -6.36111e-014
lhumerus -32.1166 -7.11314 91.5668
lradius 112.342
lwrist 19.3715
lhand -24.4794 3.83775
lfingers 7.12502
lthumb 2.01441 33.808
rfemur -9.97802 -33.1615 36.5369
rtibia 28.8736
rfoot -30.3048 -29.309
rtoes -3.76341
lfemur -40.4289 -6.72358 -11.8767
ltibia 46.7593
lfoot -11.4605 -5.80494
ltoes -6.29808
700
root 8.88804 17.0728 0.463558 7.38674 18.5473 -6.12229
lowerback 16.5717 6.66436 -3.00875
upperback 8.93635 8.32696 -6.61803
thorax 0.998886 4.30923 -6.60544
lowerneck -12.7446 -9.03162 -8.83709
upperneck -12.7534 -10.044 15.815
head -0.367834 -4.72874 5.83629
rclavicle -1.59028e-015 -1.74931e-014
rhumerus 73.4532 -4.29786 -44.5901
rradius 29.5902
rwrist -2.66638
rhand -28.2722 22.7879
rfingers 7.12502
rthumb -1.64877 -7.18543
lclavicle -1.59028e-015 -1.74931e-014
lhumerus -32.1812 -6.82167 91.4929
lradius 112.265
lwrist 19.4046
lhand -24.0575 3.28919
lfingers 7.12502
lthumb 2.42187 33.2552
rfemur -9.90581 -32.8885 36.6156
rtibia 29.0818
rfoot -30.9358 -29.0885
rtoes -3.37506
lfemur -40.3809 -6.4572 -11.744
ltibia 46.8331
lfoot -11.5243 -5.94698
ltoes -6.98949
701
root 8.90032 17.0664 0.471822 7.19803 18.4329 -6.04454
lowerback 16.6794 6.64181 -3.08173
upperback 8.97587 8.28146 -6.64336
thorax 0.976424 4.28506 -6.59778
lowerneck -12.6149 -8.86707 -8.53185
upperneck -12.7598 -9.88331 15.3858
head -0.456723 -4.66395 5.67384
rclavicle -9.38264e-014 9.06458e-014
rhumerus 72.7168 -3.84187 -44.4064
rradius 31.0314
rwrist -4.39138
rhand -27.4889 21.9913
rfingers 7.12502
rthumb -0.892265 -7.98657
lclavicle -9.38264e-014 9.06458e-014
lhumerus -32.392 -6.75521 91.407
lradius 112.316
lwrist 19.5627
lhand -24.388 3.13205
lfingers 7.12502
lthumb 2.10259 33.1014
rfemur -9.44873 -32.717 36.2383
rtibia 29.0632
rfoot -31.4672 -28.7091
rtoes -2.66425
lfemur -40.1137 -6.35078 -11.9337
ltibia 46.9367
lfoot -11.5965 -5.99267
ltoes -6.85757
702
root 8.90954 17.0728 0.482826 7.04114 18.2911 -5.99117
lowerback 16.6876 6.64371 -3.16068
upperback 9.0077 8.2746 -6.67349
thorax 1.00073 4.28021 -6.58491
lowerneck -12.665 -8.7813 -8.31105
upperneck -12.5644 -9.82041 15.1376
head -0.428844 -4.63513 5.55976
rclavicle 6.83819e-014 -7.95139e-015
rhumerus 71.8176 -3.3441 -44.302
rradius 32.5749
rwrist -5.59471
rhand -27.2268 21.1188
rfingers 7.12502
rthumb -0.639183 -8.85994
lclavicle 6.83819e-014 -7.95139e-015
lhumerus -32.5393 -6.73529 91.3366
lradius 112.338
lwrist 19.6189
lhand -23.9238 2.90102
lfingers 7.12502
lthumb 2.551 32.8655
rfemur -8.98587 -32.6244 35.9286
rtibia 28.8645
rfoot -31.3425 -28.4976
rtoes -2.46336
lfemur -39.8589 -6.41204 -12.0078
ltibia 47.0128
lfoot -11.6379 -5.92993
ltoes -5.97919
703
root 8.91864 17.0867 0.490599 6.90623 18.0476 -6.21929
lowerback 16.5809 6.63773 -2.98053
upperback 8.97434 8.29734 -6.7027
thorax 1.05142 4.29935 -6.70631
lowerneck -12.6729 -8.70674 -8.08786
upperneck -12.3998 -9.76662 15.0395
head -0.403609 -4.61449 5.49261
rclavicle -9.22361e-014 7.15625e-014
rhumerus 70.958 -2.86838 -44.8778
rradius 33.6995
rwrist -5.45824
rhand -28.1933 20.8685
rfingers 7.12502
rthumb -1.57265 -9.10545
lclavicle -9.22361e-014 7.15625e-014
lhumerus -32.721 -6.71672 91.2096
lradius 112.519
lwrist 19.7014
lhand -22.8413 2.38012
lfingers 7.12502
lthumb 3.59632 32.3295
rfemur -8.67919 -32.4009 35.978
rtibia 28.6288
rfoot -31.0731 -28.3649
rtoes -2.49947
lfemur -39.6885 -6.34567 -11.7746
ltibia 47.0133
lfoot -11.8103 -5.7668
ltoes -5.89241
704
root 8.93043 17.0935 0.488456 6.67651 17.8035 -6.53458
lowerback 16.802 6.5668 -2.56458
upperback 8.80777 8.23023 -6.78927
thorax 0.821804 4.2806 -7.05961
lowerneck -12.7441 -8.60463 -8.06261
upperneck -12.0157 -9.66255 15.1413
head -0.284247 -4.55489 5.51238
rclavicle -1.90833e-014 -1.27222e-014
rhumerus 70.0756 -2.29903 -45.9474
rradius 34.6643
rwrist -5.06487
rhand -28.7535 24.3017
rfingers 7.12502
rthumb -2.11364 -5.66761
lclavicle -1.90833e-014 -1.27222e-014
lhumerus -33.0068 -6.93071 90.9306
lradius 112.617
lwrist 19.9527
lhand -22.8298 2.62511
lfingers 7.12502
lthumb 3.60744 32.5743
rfemur -8.33478 -32.1884 36.0782
rtibia 28.3734
rfoot -30.498 -28.3349
rtoes -3.26324
lfemur -39.47 -6.19516 -11.5133
ltibia 46.9731
lfoot -12.0324 -5.6414
ltoes -6.88198
705
root 8.94028 17.1039 0.486748 6.68789 17.5898 -6.27404
lowerback 16.9884 6.49671 -2.7772
upperback 8.65272 8.07624 -6.92936
thorax 0.535257 4.19367 -7.10757
lowerneck -12.9603 -8.51514 -8.05928
upperneck -11.607 -9.57434 15.0329
head -0.149055 -4.49436 5.46591
rclavicle -9.85972e-014 7.4743e-014
rhumerus 69.0076 -1.59484 -46.2122
rradius 36.3409
rwrist -5.56884
rhand -28.5504 27.1849
rfingers 7.12502
rthumb -1.91747 -2.78627
lclavicle -9.85972e-014 7.4743e-014
lhumerus -33.1211 -7.04498 90.8096
lradius 112.259
lwrist 20.1262
lhand -23.8429 3.00022
lfingers 7.12502
lthumb 2.62908 32.9638
rfemur -8.14233 -32.0435 35.6527
rtibia 28.1906
rfoot -29.7666 -28.4527
rtoes -4.68269
lfemur -39.3253 -6.22241 -11.8339
ltibia 46.8988
lfoot -12.1147 -5.47393
ltoes -8.00337
706
root 8.9515 17.1117 0.489784 6.65101 17.3121 -6.08869
lowerback 16.7975 6.49304 -3.08986
upperback 8.71655 8.04509 -6.86201
thorax 0.64575 4.16408 -6.82822
lowerneck -12.9856 -8.40656 -7.98079
upperneck -11.6719 -9.44261 14.6413
head -0.211371 -4.43051 5.34549
rclavicle -4.6118e-014 8.5875e-014
rhumerus 67.8996 -1.00787 -45.6036
rradius 38.4444
rwrist -6.42903
rhand -28.8733 24.9778
rfingers 7.12502
rthumb -2.22933 -4.99027
lclavicle -4.6118e-014 8.5875e-014
lhumerus -32.8795 -6.97508 91.0556
lradius 111.818
lwrist 19.9352
lhand -24.5732 2.6767
lfingers 7.12502
lthumb 1.92379 32.6478
rfemur -7.92403 -31.8348 35.2788
rtibia 28.1607
rfoot -29.5954 -28.4811
rtoes -4.74091
lfemur -39.1244 -6.35311 -12.0455
ltibia 46.8368
lfoot -12.076 -5.0443
ltoes -9.24886
707
root 8.96574 17.1103 0.492814 6.46394 16.9657 -6.16457
lowerback 16.8656 6.54763 -3.03903
upperback 8.57418 8.1026 -6.79416
thorax 0.456944 4.18673 -6.81079
lowerneck -12.7547 -8.34594 -7.89468
upperneck -11.6164 -9.40721 14.2807
head -0.263917 -4.42388 5.23087
rclavicle -1.74931e-014 3.65764e-014
rhumerus 66.3886 -0.312522 -45.3353
rradius 40.5274
rwrist -7.27398
rhand -29.3248 22.9726
rfingers 7.12502
rthumb -2.66541 -6.99044
lclavicle -1.74931e-014 3.65764e-014
lhumerus -33.1241 -7.18778 91.2279
lradius 111.768
lwrist 19.6169
lhand -25.3313 2.54276
lfingers 7.12502
lthumb 1.19155 32.5192
rfemur -7.60555 -31.6174 35.0939
rtibia 28.2438
rfoot -29.8204 -28.1062
rtoes -3.614
lfemur -38.793 -6.4308 -11.9929
ltibia 46.8087
lfoot -12.1144 -4.5369
ltoes -10.0795
708
root 8.97745 17.1115 0.490696 6.40217 16.5852 -6.20658
lowerback 17.2387 6.60681 -2.87354
upperback 8.12671 8.12967 -6.91674
thorax -0.174606 4.19486 -7.12215
lowerneck -12.7144 -8.35037 -8.15135
upperneck -10.991 -9.44103 14.5267
head -0.0517229 -4.42413 5.32686
rclavicle -7.4743e-014 3.18055e-015
rhumerus 64.552 0.544033 -45.6672
rradius 42.5328
rwrist -7.90432
rhand -29.6957 23.3817
rfingers 7.12502
rthumb -3.02359 -6.57661
lclavicle -7.4743e-014 3.18055e-015
lhumerus -33.8527 -7.54556 91.1134
lradius 111.959
lwrist 19.5719
lhand -25.8775 3.01615
lfingers 7.12502
lthumb 0.664046 32.9949
rfemur -7.49178 -31.381 34.9682
rtibia 28.3615
rfoot -29.944 -27.8024
rtoes -3.62367
lfemur -38.581 -6.3954 -11.9442
ltibia 46.8017
lfoot -12.1903 -4.25041
ltoes -8.7491
709
root 8.99205 17.114 0.484166 6.31151 16.2218 -6.43867
lowerback 17.2767 6.53933 -2.47136
upperback 7.92691 8.08097 -7.01427
thorax -0.345021 4.18008 -7.46212
lowerneck -12.9129 -8.25161 -8.64061
upperneck -10.537 -9.25993 15.1952
head 0.16448 -4.30057 5.60303
rclavicle 4.77083e-015 1.59028e-014
rhumerus 63.2081 1.26677 -46.2364
rradius 44.4251
rwrist -8.17069
rhand -29.8693 23.962
rfingers 7.12502
rthumb -3.19125 -5.9939
lclavicle 4.77083e-015 1.59028e-014
lhumerus -33.9257 -7.61472 90.9011
lradius 111.797
lwrist 19.526
lhand -24.8972 3.08609
lfingers 7.12502
lthumb 1.61082 33.0598
rfemur -7.43604 -31.0686 35.072
rtibia 28.4791
rfoot -30.0044 -27.6484
rtoes -4.07432
lfemur -38.4729 -6.34058 -11.6925
ltibia 46.8061
lfoot -12.1288 -4.04019
ltoes -7.31507
710
root 9.01172 17.117 0.476688 6.18187 15.8796 -6.42931
lowerback 17.0246 6.4735 -2.53522
upperback 8.02836 8.01303 -6.87455
thorax -0.145588 4.14236 -7.22246
lowerneck -12.9589 -8.05262 -8.96008
upperneck -10.6415 -8.93157 15.2978
head 0.125922 -4.12483 5.7127
rclavicle 9.54166e-014 -6.52014e-014
rhumerus 62.3176 1.96475 -46.3915
rradius 46.5114
rwrist -8.95368
rhand -29.3459 24.4608
rfingers 7.12502
rthumb -2.68575 -5.502
lclavicle 9.54166e-014 -6.52014e-014
lhumerus -33.6313 -7.47987 91.079
lradius 111.443
lwrist 19.3888
lhand -23.9102 2.63967
lfingers 7.12502
lthumb 2.56411 32.604
rfemur -7.24591 -30.8324 34.8288
rtibia 28.5851
rfoot -29.9297 -27.3963
rtoes -3.89496
lfemur -38.2226 -6.52472 -11.7065
ltibia 46.7632
lfoot -12.0599 -3.58222
ltoes -7.38137
